<svg id="Ebene_1" data-name="Ebene 1" xmlns="http://www.w3.org/2000/svg" viewBox="0 0 870.46 184.05"><defs><style>.cls-1{fill:#fff;}</style></defs><title>flexways_logo</title><path class="cls-1" d="M372.45,64.57c-23.59,0-44.07,14-52.88,36.29-8.81-22.29-29.29-36.29-52.88-36.29V73.9c24.37,0,47.7,23.07,47.7,52.1s-23.33,52.1-47.7,52.1v9.33c23.59,0,44.07-14,52.88-36.29,8.82,22.29,29.29,36.29,52.88,36.29v-9.33c-24.37,0-47.7-23.07-47.7-52.1s23.33-52.1,47.7-52.1V64.57Zm-214.12,87.1L246.21,92A64,64,0,0,0,191.51,62c-37.85,0-63.77,29.55-63.77,64.29,0,36,27.48,63.77,65.84,63.77,34.74,0,61.44-28.78,62.22-61.44H245.42c-0.52,28-24.1,52.1-53.92,52.1-30.59,0-53.4-24.89-53.4-53.92,0-29.29,22-55.47,53.4-55.47A50.25,50.25,0,0,1,231.17,90l-79.07,53.4ZM94,6H84.19V187.44H94V6ZM65,64.57H14.2V46.68c0-22,16.59-31.37,31.11-31.37H65V6H45.31c-18.67,0-41,11.93-41,38.11V187.44H14.2V73.9H65V64.57Z" transform="translate(-4.35 -5.98)"/><path class="cls-1" d="M867.62,66.67a92.28,92.28,0,0,0-29.28-4.39c-21.57,0-42.79,10-42.79,37.35,0,40.51,53.66,30.86,53.66,54.19,0,11-12.45,15.78-21.75,15.78-9.64,0-19.29-3-27.7-7.54l-2.28,22.1c12.1,3,18.07,4.74,31.39,4.74,24.73,0,45.95-10.17,45.95-37,0-41-53.66-32.09-53.66-53.31,0-13.32,10.87-17,19.29-17a63.36,63.36,0,0,1,24.9,5.26ZM722.08,186.78h24.55v-48.4l43.84-74h-26l-29.46,51.38L706.12,64.38H677.36l44.72,74v48.4Zm-154.5,0H593l10.7-28.06h49.63l10.52,28.06H691L643,64.38H615.27Zm78.91-47.34H610.71l17.71-50.5h0.35ZM434.8,186.78h31.74l21.75-97.85h0.35l22.1,97.85H542.3l31.91-122.4H550.36l-23,97.85H527L505.47,64.38H472.15l-20.87,97.85h-0.35l-22.8-97.85H402.36Z" transform="translate(-4.35 -5.98)"/></svg>