<svg width="72" height="49" viewBox="0 0 72 49" fill="none" xmlns="http://www.w3.org/2000/svg">
<path fill-rule="evenodd" clip-rule="evenodd" d="M4.54737 0C2.03593 0 0 2.03593 0 4.54737V18.2019C2.96262 18.3969 5.30526 20.8617 5.30526 23.8737C5.30526 26.8857 2.96262 29.3505 0 29.5455V43.9579C0 46.4693 2.03593 48.5053 4.54737 48.5053H67.4526C69.9641 48.5053 72 46.4693 72 43.9579V29.5455C71.8747 29.5537 71.7484 29.5579 71.6211 29.5579C68.4818 29.5579 65.9368 27.013 65.9368 23.8737C65.9368 20.7344 68.4818 18.1895 71.6211 18.1895C71.7484 18.1895 71.8747 18.1937 72 18.2019V4.54737C72 2.03593 69.9641 0 67.4526 0H4.54737ZM14.4 7.54712C12.7257 7.54712 11.3684 8.9044 11.3684 10.5787V37.7034C11.3684 39.3777 12.7257 40.7349 14.4 40.7349H57.6C59.2743 40.7349 60.6316 39.3777 60.6316 37.7034V10.5787C60.6316 8.90441 59.2743 7.54712 57.6 7.54712H14.4Z" fill="currentColor"/>
<rect x="16.6737" y="11.1211" width="38.6526" height="26.0397" rx="1.51579" fill="currentColor"/>
</svg>
